<mxfile host="app.diagrams.net" modified="2023-04-03T21:07:57.460Z" agent="Mozilla/5.0 (Windows NT 10.0; Win64; x64) AppleWebKit/537.36 (KHTML, like Gecko) Chrome/111.0.0.0 Safari/537.36" etag="t2JHpPA8d69yS25-LkYv" version="21.1.4" type="device">
  <diagram id="C5RBs43oDa-KdzZeNtuy" name="Page-1">
    <mxGraphModel dx="1290" dy="549" grid="1" gridSize="10" guides="1" tooltips="1" connect="1" arrows="1" fold="1" page="1" pageScale="1" pageWidth="827" pageHeight="1169" math="0" shadow="0">
      <root>
        <mxCell id="WIyWlLk6GJQsqaUBKTNV-0" />
        <mxCell id="WIyWlLk6GJQsqaUBKTNV-1" parent="WIyWlLk6GJQsqaUBKTNV-0" />
        <mxCell id="C6aMa4qiacQqKWP2MHw1-0" value="Клиентское по" style="shape=umlFrame;whiteSpace=wrap;html=1;pointerEvents=0;width=100;height=20;" parent="WIyWlLk6GJQsqaUBKTNV-1" vertex="1">
          <mxGeometry y="150" width="500" height="550" as="geometry" />
        </mxCell>
        <mxCell id="C6aMa4qiacQqKWP2MHw1-1" value="БД" style="shape=umlFrame;whiteSpace=wrap;html=1;pointerEvents=0;width=100;height=20;" parent="WIyWlLk6GJQsqaUBKTNV-1" vertex="1">
          <mxGeometry x="530" y="150" width="370" height="550" as="geometry" />
        </mxCell>
        <mxCell id="C6aMa4qiacQqKWP2MHw1-2" value="Панель инструментов" style="shape=umlBoundary;whiteSpace=wrap;html=1;" parent="WIyWlLk6GJQsqaUBKTNV-1" vertex="1">
          <mxGeometry x="40" y="180" width="100" height="80" as="geometry" />
        </mxCell>
        <mxCell id="C6aMa4qiacQqKWP2MHw1-3" value="Набор вкладок" style="shape=umlBoundary;whiteSpace=wrap;html=1;" parent="WIyWlLk6GJQsqaUBKTNV-1" vertex="1">
          <mxGeometry x="180" y="180" width="100" height="80" as="geometry" />
        </mxCell>
        <mxCell id="C6aMa4qiacQqKWP2MHw1-4" value="Строка состояния" style="shape=umlBoundary;whiteSpace=wrap;html=1;" parent="WIyWlLk6GJQsqaUBKTNV-1" vertex="1">
          <mxGeometry x="330" y="180" width="100" height="80" as="geometry" />
        </mxCell>
        <mxCell id="C6aMa4qiacQqKWP2MHw1-5" value="Диалоговое окно для работы с БД" style="shape=umlBoundary;whiteSpace=wrap;html=1;" parent="WIyWlLk6GJQsqaUBKTNV-1" vertex="1">
          <mxGeometry x="165" y="330" width="130" height="100" as="geometry" />
        </mxCell>
        <mxCell id="C6aMa4qiacQqKWP2MHw1-6" value="" style="endArrow=diamondThin;endFill=1;endSize=24;html=1;rounded=0;" parent="WIyWlLk6GJQsqaUBKTNV-1" source="C6aMa4qiacQqKWP2MHw1-2" target="C6aMa4qiacQqKWP2MHw1-5" edge="1">
          <mxGeometry width="160" relative="1" as="geometry">
            <mxPoint x="60" y="300" as="sourcePoint" />
            <mxPoint x="220" y="300" as="targetPoint" />
          </mxGeometry>
        </mxCell>
        <mxCell id="C6aMa4qiacQqKWP2MHw1-7" value="" style="endArrow=diamondThin;endFill=1;endSize=24;html=1;rounded=0;" parent="WIyWlLk6GJQsqaUBKTNV-1" source="C6aMa4qiacQqKWP2MHw1-3" target="C6aMa4qiacQqKWP2MHw1-5" edge="1">
          <mxGeometry width="160" relative="1" as="geometry">
            <mxPoint x="234" y="280" as="sourcePoint" />
            <mxPoint x="295" y="350" as="targetPoint" />
          </mxGeometry>
        </mxCell>
        <mxCell id="C6aMa4qiacQqKWP2MHw1-8" value="" style="endArrow=diamondThin;endFill=1;endSize=24;html=1;rounded=0;entryX=0.885;entryY=0.1;entryDx=0;entryDy=0;entryPerimeter=0;" parent="WIyWlLk6GJQsqaUBKTNV-1" source="C6aMa4qiacQqKWP2MHw1-4" target="C6aMa4qiacQqKWP2MHw1-5" edge="1">
          <mxGeometry width="160" relative="1" as="geometry">
            <mxPoint x="320" y="270" as="sourcePoint" />
            <mxPoint x="320" y="340" as="targetPoint" />
          </mxGeometry>
        </mxCell>
        <mxCell id="C6aMa4qiacQqKWP2MHw1-9" value="Диалоговое окно&amp;nbsp; &quot;Продажа&quot;" style="shape=umlBoundary;whiteSpace=wrap;html=1;" parent="WIyWlLk6GJQsqaUBKTNV-1" vertex="1">
          <mxGeometry x="40" y="470" width="100" height="80" as="geometry" />
        </mxCell>
        <mxCell id="C6aMa4qiacQqKWP2MHw1-11" value="" style="endArrow=diamondThin;endFill=0;endSize=24;html=1;rounded=0;" parent="WIyWlLk6GJQsqaUBKTNV-1" source="C6aMa4qiacQqKWP2MHw1-9" target="C6aMa4qiacQqKWP2MHw1-5" edge="1">
          <mxGeometry width="160" relative="1" as="geometry">
            <mxPoint x="330" y="410" as="sourcePoint" />
            <mxPoint x="490" y="410" as="targetPoint" />
          </mxGeometry>
        </mxCell>
        <mxCell id="C6aMa4qiacQqKWP2MHw1-12" value="Диалоговое окно&amp;nbsp; &quot;Клиент&quot;" style="shape=umlBoundary;whiteSpace=wrap;html=1;" parent="WIyWlLk6GJQsqaUBKTNV-1" vertex="1">
          <mxGeometry x="10" y="600" width="100" height="80" as="geometry" />
        </mxCell>
        <mxCell id="C6aMa4qiacQqKWP2MHw1-13" value="Диалоговое окно&amp;nbsp; &quot;Выбор автомобиля&quot;" style="shape=umlBoundary;whiteSpace=wrap;html=1;" parent="WIyWlLk6GJQsqaUBKTNV-1" vertex="1">
          <mxGeometry x="130" y="600" width="100" height="80" as="geometry" />
        </mxCell>
        <mxCell id="C6aMa4qiacQqKWP2MHw1-14" value="" style="endArrow=diamondThin;endFill=1;endSize=24;html=1;rounded=0;" parent="WIyWlLk6GJQsqaUBKTNV-1" source="C6aMa4qiacQqKWP2MHw1-12" target="C6aMa4qiacQqKWP2MHw1-9" edge="1">
          <mxGeometry width="160" relative="1" as="geometry">
            <mxPoint x="330" y="440" as="sourcePoint" />
            <mxPoint x="490" y="440" as="targetPoint" />
          </mxGeometry>
        </mxCell>
        <mxCell id="C6aMa4qiacQqKWP2MHw1-15" value="" style="endArrow=diamondThin;endFill=1;endSize=24;html=1;rounded=0;" parent="WIyWlLk6GJQsqaUBKTNV-1" source="C6aMa4qiacQqKWP2MHw1-13" target="C6aMa4qiacQqKWP2MHw1-9" edge="1">
          <mxGeometry width="160" relative="1" as="geometry">
            <mxPoint x="79" y="610" as="sourcePoint" />
            <mxPoint x="91" y="560" as="targetPoint" />
          </mxGeometry>
        </mxCell>
        <mxCell id="C6aMa4qiacQqKWP2MHw1-22" style="edgeStyle=orthogonalEdgeStyle;rounded=0;orthogonalLoop=1;jettySize=auto;html=1;endArrow=open;verticalAlign=bottom;dashed=1;endSize=8;" parent="WIyWlLk6GJQsqaUBKTNV-1" source="C6aMa4qiacQqKWP2MHw1-16" target="C6aMa4qiacQqKWP2MHw1-9" edge="1">
          <mxGeometry relative="1" as="geometry" />
        </mxCell>
        <mxCell id="C6aMa4qiacQqKWP2MHw1-24" style="edgeStyle=orthogonalEdgeStyle;rounded=0;orthogonalLoop=1;jettySize=auto;html=1;endArrow=open;verticalAlign=bottom;dashed=1;endSize=8;" parent="WIyWlLk6GJQsqaUBKTNV-1" source="C6aMa4qiacQqKWP2MHw1-16" target="C6aMa4qiacQqKWP2MHw1-23" edge="1">
          <mxGeometry relative="1" as="geometry" />
        </mxCell>
        <mxCell id="C6aMa4qiacQqKWP2MHw1-16" value="Расчет стоимоси" style="ellipse;shape=umlControl;whiteSpace=wrap;html=1;" parent="WIyWlLk6GJQsqaUBKTNV-1" vertex="1">
          <mxGeometry x="195" y="470" width="70" height="80" as="geometry" />
        </mxCell>
        <mxCell id="C6aMa4qiacQqKWP2MHw1-23" value="Таблица" style="ellipse;shape=umlEntity;whiteSpace=wrap;html=1;" parent="WIyWlLk6GJQsqaUBKTNV-1" vertex="1">
          <mxGeometry x="360" y="520" width="80" height="80" as="geometry" />
        </mxCell>
        <mxCell id="C6aMa4qiacQqKWP2MHw1-47" style="edgeStyle=orthogonalEdgeStyle;rounded=0;orthogonalLoop=1;jettySize=auto;html=1;endArrow=open;verticalAlign=bottom;dashed=1;endSize=8;" parent="WIyWlLk6GJQsqaUBKTNV-1" source="C6aMa4qiacQqKWP2MHw1-25" target="C6aMa4qiacQqKWP2MHw1-1" edge="1">
          <mxGeometry relative="1" as="geometry" />
        </mxCell>
        <mxCell id="C6aMa4qiacQqKWP2MHw1-25" value="Соединение с БД" style="ellipse;shape=umlControl;whiteSpace=wrap;html=1;" parent="WIyWlLk6GJQsqaUBKTNV-1" vertex="1">
          <mxGeometry x="414" y="385" width="70" height="80" as="geometry" />
        </mxCell>
        <mxCell id="C6aMa4qiacQqKWP2MHw1-26" value="" style="endArrow=open;html=1;rounded=0;verticalAlign=bottom;dashed=1;endSize=8;" parent="WIyWlLk6GJQsqaUBKTNV-1" source="C6aMa4qiacQqKWP2MHw1-23" target="C6aMa4qiacQqKWP2MHw1-25" edge="1">
          <mxGeometry width="50" height="50" relative="1" as="geometry">
            <mxPoint x="390" y="470" as="sourcePoint" />
            <mxPoint x="440" y="420" as="targetPoint" />
          </mxGeometry>
        </mxCell>
        <mxCell id="C6aMa4qiacQqKWP2MHw1-27" value="Продажа автомобиля" style="ellipse;shape=umlEntity;whiteSpace=wrap;html=1;" parent="WIyWlLk6GJQsqaUBKTNV-1" vertex="1">
          <mxGeometry x="600" y="350" width="80" height="80" as="geometry" />
        </mxCell>
        <mxCell id="C6aMa4qiacQqKWP2MHw1-29" value="Оплата" style="ellipse;shape=umlEntity;whiteSpace=wrap;html=1;" parent="WIyWlLk6GJQsqaUBKTNV-1" vertex="1">
          <mxGeometry x="540" y="180" width="80" height="80" as="geometry" />
        </mxCell>
        <mxCell id="C6aMa4qiacQqKWP2MHw1-30" value="Стоимость" style="ellipse;shape=umlEntity;whiteSpace=wrap;html=1;" parent="WIyWlLk6GJQsqaUBKTNV-1" vertex="1">
          <mxGeometry x="660" y="200" width="80" height="80" as="geometry" />
        </mxCell>
        <mxCell id="C6aMa4qiacQqKWP2MHw1-31" value="Чек" style="ellipse;shape=umlEntity;whiteSpace=wrap;html=1;" parent="WIyWlLk6GJQsqaUBKTNV-1" vertex="1">
          <mxGeometry x="760" y="270" width="80" height="80" as="geometry" />
        </mxCell>
        <mxCell id="C6aMa4qiacQqKWP2MHw1-32" value="Требования к клиенту" style="ellipse;shape=umlEntity;whiteSpace=wrap;html=1;" parent="WIyWlLk6GJQsqaUBKTNV-1" vertex="1">
          <mxGeometry x="800" y="385" width="80" height="80" as="geometry" />
        </mxCell>
        <mxCell id="C6aMa4qiacQqKWP2MHw1-33" value="Данные клиента" style="ellipse;shape=umlEntity;whiteSpace=wrap;html=1;" parent="WIyWlLk6GJQsqaUBKTNV-1" vertex="1">
          <mxGeometry x="720" y="470" width="80" height="80" as="geometry" />
        </mxCell>
        <mxCell id="C6aMa4qiacQqKWP2MHw1-34" value="Купленный автомобиль" style="ellipse;shape=umlEntity;whiteSpace=wrap;html=1;" parent="WIyWlLk6GJQsqaUBKTNV-1" vertex="1">
          <mxGeometry x="540" y="470" width="80" height="80" as="geometry" />
        </mxCell>
        <mxCell id="C6aMa4qiacQqKWP2MHw1-35" value="Информация об автомобиле" style="ellipse;shape=umlEntity;whiteSpace=wrap;html=1;" parent="WIyWlLk6GJQsqaUBKTNV-1" vertex="1">
          <mxGeometry x="610" y="590" width="80" height="80" as="geometry" />
        </mxCell>
        <mxCell id="C6aMa4qiacQqKWP2MHw1-36" value="Платежные данные" style="ellipse;shape=umlEntity;whiteSpace=wrap;html=1;" parent="WIyWlLk6GJQsqaUBKTNV-1" vertex="1">
          <mxGeometry x="710" y="610" width="80" height="80" as="geometry" />
        </mxCell>
        <mxCell id="C6aMa4qiacQqKWP2MHw1-37" value="Личные данные" style="ellipse;shape=umlEntity;whiteSpace=wrap;html=1;" parent="WIyWlLk6GJQsqaUBKTNV-1" vertex="1">
          <mxGeometry x="800" y="545" width="80" height="80" as="geometry" />
        </mxCell>
        <mxCell id="C6aMa4qiacQqKWP2MHw1-38" value="" style="endArrow=diamondThin;endFill=1;endSize=24;html=1;rounded=0;" parent="WIyWlLk6GJQsqaUBKTNV-1" source="C6aMa4qiacQqKWP2MHw1-30" target="C6aMa4qiacQqKWP2MHw1-27" edge="1">
          <mxGeometry width="160" relative="1" as="geometry">
            <mxPoint x="350" y="380" as="sourcePoint" />
            <mxPoint x="510" y="380" as="targetPoint" />
          </mxGeometry>
        </mxCell>
        <mxCell id="C6aMa4qiacQqKWP2MHw1-39" value="" style="endArrow=diamondThin;endFill=1;endSize=24;html=1;rounded=0;" parent="WIyWlLk6GJQsqaUBKTNV-1" source="C6aMa4qiacQqKWP2MHw1-31" target="C6aMa4qiacQqKWP2MHw1-27" edge="1">
          <mxGeometry width="160" relative="1" as="geometry">
            <mxPoint x="695" y="287" as="sourcePoint" />
            <mxPoint x="665" y="363" as="targetPoint" />
          </mxGeometry>
        </mxCell>
        <mxCell id="C6aMa4qiacQqKWP2MHw1-40" value="" style="endArrow=diamondThin;endFill=1;endSize=24;html=1;rounded=0;" parent="WIyWlLk6GJQsqaUBKTNV-1" source="C6aMa4qiacQqKWP2MHw1-32" target="C6aMa4qiacQqKWP2MHw1-27" edge="1">
          <mxGeometry width="160" relative="1" as="geometry">
            <mxPoint x="774" y="338" as="sourcePoint" />
            <mxPoint x="686" y="382" as="targetPoint" />
          </mxGeometry>
        </mxCell>
        <mxCell id="C6aMa4qiacQqKWP2MHw1-41" value="" style="endArrow=diamondThin;endFill=1;endSize=24;html=1;rounded=0;" parent="WIyWlLk6GJQsqaUBKTNV-1" source="C6aMa4qiacQqKWP2MHw1-33" target="C6aMa4qiacQqKWP2MHw1-27" edge="1">
          <mxGeometry width="160" relative="1" as="geometry">
            <mxPoint x="811" y="428" as="sourcePoint" />
            <mxPoint x="689" y="407" as="targetPoint" />
          </mxGeometry>
        </mxCell>
        <mxCell id="C6aMa4qiacQqKWP2MHw1-42" value="" style="endArrow=diamondThin;endFill=1;endSize=24;html=1;rounded=0;" parent="WIyWlLk6GJQsqaUBKTNV-1" source="C6aMa4qiacQqKWP2MHw1-27" target="C6aMa4qiacQqKWP2MHw1-34" edge="1">
          <mxGeometry width="160" relative="1" as="geometry">
            <mxPoint x="742" y="492" as="sourcePoint" />
            <mxPoint x="678" y="428" as="targetPoint" />
          </mxGeometry>
        </mxCell>
        <mxCell id="C6aMa4qiacQqKWP2MHw1-43" value="" style="endArrow=diamondThin;endFill=0;endSize=24;html=1;rounded=0;" parent="WIyWlLk6GJQsqaUBKTNV-1" source="C6aMa4qiacQqKWP2MHw1-35" target="C6aMa4qiacQqKWP2MHw1-34" edge="1">
          <mxGeometry width="160" relative="1" as="geometry">
            <mxPoint x="350" y="520" as="sourcePoint" />
            <mxPoint x="510" y="520" as="targetPoint" />
          </mxGeometry>
        </mxCell>
        <mxCell id="C6aMa4qiacQqKWP2MHw1-44" value="" style="endArrow=diamondThin;endFill=1;endSize=24;html=1;rounded=0;" parent="WIyWlLk6GJQsqaUBKTNV-1" source="C6aMa4qiacQqKWP2MHw1-36" target="C6aMa4qiacQqKWP2MHw1-33" edge="1">
          <mxGeometry width="160" relative="1" as="geometry">
            <mxPoint x="742" y="492" as="sourcePoint" />
            <mxPoint x="678" y="428" as="targetPoint" />
          </mxGeometry>
        </mxCell>
        <mxCell id="C6aMa4qiacQqKWP2MHw1-45" value="" style="endArrow=diamondThin;endFill=1;endSize=24;html=1;rounded=0;" parent="WIyWlLk6GJQsqaUBKTNV-1" source="C6aMa4qiacQqKWP2MHw1-37" target="C6aMa4qiacQqKWP2MHw1-33" edge="1">
          <mxGeometry width="160" relative="1" as="geometry">
            <mxPoint x="763" y="620" as="sourcePoint" />
            <mxPoint x="767" y="560" as="targetPoint" />
          </mxGeometry>
        </mxCell>
        <mxCell id="C6aMa4qiacQqKWP2MHw1-46" value="" style="endArrow=diamondThin;endFill=0;endSize=24;html=1;rounded=0;" parent="WIyWlLk6GJQsqaUBKTNV-1" source="C6aMa4qiacQqKWP2MHw1-29" target="C6aMa4qiacQqKWP2MHw1-27" edge="1">
          <mxGeometry width="160" relative="1" as="geometry">
            <mxPoint x="640" y="605" as="sourcePoint" />
            <mxPoint x="610" y="555" as="targetPoint" />
          </mxGeometry>
        </mxCell>
        <mxCell id="7zQP1pg69Ap2la7gpHcj-0" value="" style="shape=umlBoundary;whiteSpace=wrap;html=1;" vertex="1" parent="WIyWlLk6GJQsqaUBKTNV-1">
          <mxGeometry x="610" y="850" width="100" height="80" as="geometry" />
        </mxCell>
        <mxCell id="7zQP1pg69Ap2la7gpHcj-1" value="" style="ellipse;shape=umlEntity;whiteSpace=wrap;html=1;" vertex="1" parent="WIyWlLk6GJQsqaUBKTNV-1">
          <mxGeometry x="404" y="840" width="80" height="80" as="geometry" />
        </mxCell>
        <mxCell id="7zQP1pg69Ap2la7gpHcj-2" value="" style="ellipse;shape=umlControl;whiteSpace=wrap;html=1;" vertex="1" parent="WIyWlLk6GJQsqaUBKTNV-1">
          <mxGeometry x="930" y="840" width="70" height="80" as="geometry" />
        </mxCell>
      </root>
    </mxGraphModel>
  </diagram>
</mxfile>
